<?xml version="1.0" encoding="utf-8"?>
<!-- Generator: Adobe Illustrator 16.0.0, SVG Export Plug-In . SVG Version: 6.00 Build 0)  -->
<!DOCTYPE svg PUBLIC "-//W3C//DTD SVG 1.1//EN" "http://www.w3.org/Graphics/SVG/1.1/DTD/svg11.dtd">
<svg version="1.1" id="Layer_1" xmlns="http://www.w3.org/2000/svg" xmlns:xlink="http://www.w3.org/1999/xlink" x="0px" y="0px"
	 width="342px" height="222px" viewBox="0 0 342 222" enable-background="new 0 0 342 222" xml:space="preserve">
<path id="path2811" fill="#D82425" d="M54.231,123.389H23.882c-12.807,0-20.587-7.729-22.532-19.631
	C0.994,101.567,1,100.107,1,100.107c0.003-0.861,0.747-1.626,1.596-1.626h49.372L1.455,47.118
	c-3.78-3.844,18.896-17.888,34.229-2.294L56.956,66.48c2.169,2.2,5.591,2.342,7.924,0.426l-0.012-8.06
	c-6.078-0.874-10.64-6.643-10.64-12.874c0-0.867,0.746-1.623,1.598-1.623h19.56c-0.754-4.315-4.459-7.585-8.909-7.585H55.826
	c-6.763,0-12.242-5.573-12.242-12.448c0-0.867,0.746-1.622,1.596-1.622h19.8c0.784-6.114,5.935-10.828,12.156-10.828h8.907V2.82
	c0-1.795,1.441-2.415,2.712-1.164L99.08,11.875c12.326,0.351,22.3,10.532,22.3,23.182l-0.059,10.26
	c8.818,9.469,8.815,24.322-0.003,33.799c-0.024,28.023-0.009,65.638-0.006,73.599c6.012,0.807,10.651,6.02,10.651,12.357v32.475
	c0,0.17-0.349,1.029-0.47,1.16l-21.295,21.643c-0.119,0.117-0.963,0.484-1.129,0.484H77.125c-0.854,0-1.599-0.77-1.599-1.639
	c0-12.115,9.781-22.322,21.494-23.203c-0.836-10.158-9.692-18.488-19.895-18.488c-5.006,0-9.053,4.129-9.053,9.217l0.012,10.826
	c0,0.17-0.35,1.041-0.473,1.16l-21.557,21.826c-0.118,0.102-0.962,0.467-1.129,0.467H12.922c-0.854,0-1.6-0.752-1.6-1.623
	c0-12.154,10.105-22.52,21.855-23.4l-0.248-20.068c0-12.316,9.446-22.4,21.346-23.236L54.231,123.389z"/>
<g>
	<path fill="#CC3333" d="M212.782,44.489v51.163h-15.435v-21.49h-4.619v21.49h-15.432V44.489h15.432v18.297h4.619V44.489H212.782z"
		/>
	<path fill="#CC3333" d="M278.955,44.489l-6.871,51.163h-19.269c-1.763-7.86-3.319-16.804-4.67-26.83
		c-0.617,4.299-2.052,13.242-4.306,26.83h-19.157l-6.907-51.163h14.991l1.63,17.851l1.578,17.258
		c0.568-8.931,1.991-20.634,4.268-35.109h16.025c0.213,1.496,0.773,7.121,1.685,16.875l1.704,19.466
		c0.877-12.385,2.314-24.5,4.308-36.342H278.955z"/>
	<path fill="#CC3333" d="M283.875,44.489h10.926c7.281,0,12.21,0.242,14.789,0.726c2.58,0.486,4.681,1.723,6.306,3.714
		c1.626,1.991,2.438,5.167,2.438,9.528c0,3.981-0.575,6.657-1.723,8.026c-1.15,1.37-3.41,2.192-6.782,2.465
		c3.056,0.653,5.108,1.528,6.159,2.624s1.704,2.101,1.961,3.018c0.258,0.917,0.385,3.44,0.385,7.568v13.494H304V78.65
		c0-2.739-0.249-4.435-0.75-5.088c-0.502-0.652-1.816-0.979-3.941-0.979v23.069h-15.434V44.489z M299.309,53.243v11.375
		c1.733,0,2.949-0.204,3.648-0.615c0.695-0.411,1.043-1.744,1.043-3.998v-2.812c0-1.623-0.336-2.687-1.009-3.192
		C302.319,53.495,301.092,53.243,299.309,53.243z"/>
</g>
<g>
	<path d="M154.629,145.744h3.246v30.434h12.5v3.252h-15.747V145.744z"/>
	<path d="M196.376,171.164l2.605,1.418c-0.855,1.738-1.843,3.145-2.962,4.215c-1.12,1.068-2.381,1.879-3.781,2.439
		c-1.398,0.555-2.982,0.834-4.753,0.834c-3.919,0-6.983-1.334-9.194-3.994c-2.211-2.666-3.316-5.676-3.316-9.035
		c0-3.16,0.936-5.977,2.808-8.451c2.372-3.145,5.548-4.717,9.526-4.717c4.098,0,7.369,1.611,9.814,4.832
		c1.74,2.275,2.623,5.115,2.654,8.518h-21.622c0.059,2.895,0.95,5.268,2.675,7.117c1.725,1.852,3.854,2.777,6.391,2.777
		c1.223,0,2.413-0.223,3.571-0.664c1.157-0.438,2.142-1.025,2.951-1.756C194.555,173.967,195.433,172.789,196.376,171.164z
		 M196.376,164.453c-0.413-1.711-1.015-3.076-1.802-4.1c-0.791-1.023-1.832-1.848-3.13-2.471c-1.298-0.629-2.661-0.941-4.091-0.941
		c-2.359,0-4.387,0.787-6.08,2.359c-1.24,1.145-2.176,2.861-2.811,5.152H196.376z"/>
	<path d="M205.501,154.514h3.157v3.643c0.943-1.434,1.937-2.508,2.982-3.219c1.046-0.709,2.135-1.064,3.269-1.064
		c0.854,0,1.767,0.283,2.739,0.846l-1.612,2.705c-0.648-0.291-1.193-0.436-1.636-0.436c-1.03,0-2.023,0.438-2.98,1.316
		c-0.957,0.877-1.686,2.24-2.186,4.086c-0.383,1.42-0.576,4.293-0.576,8.611v8.428h-3.157V154.514z"/>
	<path d="M221.408,154.514h3.092v4.467c1.236-1.709,2.605-2.988,4.107-3.836c1.5-0.85,3.137-1.271,4.903-1.271
		c1.796,0,3.39,0.475,4.78,1.42c1.393,0.947,2.418,2.223,3.081,3.824c0.663,1.604,0.995,4.1,0.995,7.488v12.824h-3.093v-11.887
		c0-2.869-0.114-4.785-0.343-5.746c-0.36-1.648-1.047-2.889-2.063-3.723c-1.016-0.832-2.342-1.246-3.977-1.246
		c-1.869,0-3.547,0.641-5.025,1.922c-1.479,1.283-2.455,2.871-2.926,4.764c-0.295,1.238-0.441,3.496-0.441,6.779v9.137h-3.092
		V154.514z"/>
	<path d="M247.405,149.041v-3.297h17.803v3.297h-7.245v30.389h-3.313v-30.389H247.405z"/>
	<path d="M269.342,154.514h3.157v3.643c0.942-1.434,1.938-2.508,2.981-3.219c1.047-0.709,2.135-1.064,3.269-1.064
		c0.854,0,1.767,0.283,2.739,0.846l-1.612,2.705c-0.648-0.291-1.192-0.436-1.634-0.436c-1.03,0-2.025,0.438-2.981,1.316
		c-0.958,0.877-1.687,2.24-2.187,4.086c-0.383,1.42-0.575,4.293-0.575,8.611v8.428h-3.157V154.514z"/>
	<path d="M305.477,171.164l2.607,1.418c-0.854,1.738-1.842,3.145-2.963,4.215c-1.119,1.068-2.38,1.879-3.779,2.439
		c-1.399,0.555-2.984,0.834-4.754,0.834c-3.92,0-6.984-1.334-9.195-3.994c-2.21-2.666-3.314-5.676-3.314-9.035
		c0-3.16,0.934-5.977,2.807-8.451c2.37-3.145,5.549-4.717,9.526-4.717c4.097,0,7.369,1.611,9.815,4.832
		c1.738,2.275,2.623,5.115,2.651,8.518h-21.621c0.06,2.895,0.95,5.268,2.676,7.117c1.724,1.852,3.854,2.777,6.39,2.777
		c1.225,0,2.414-0.223,3.571-0.664c1.157-0.438,2.142-1.025,2.952-1.756S304.533,172.789,305.477,171.164z M305.477,164.453
		c-0.411-1.711-1.012-3.076-1.802-4.1s-1.831-1.848-3.13-2.471c-1.298-0.629-2.659-0.941-4.089-0.941
		c-2.358,0-4.388,0.787-6.081,2.359c-1.238,1.145-2.176,2.861-2.809,5.152H305.477z"/>
	<path d="M325.669,144.896v3.137c-1.135-0.502-2.106-0.756-2.917-0.756c-0.603,0-1.104,0.127-1.5,0.379
		c-0.398,0.252-0.648,0.541-0.753,0.869c-0.102,0.33-0.153,1.203-0.153,2.623l-0.002,3.365h5.016v2.771h-5.018l-0.018,22.145h-3.093
		v-22.145h-3.157v-2.771h3.157v-3.893c0-1.787,0.159-3.061,0.475-3.824c0.315-0.762,0.854-1.377,1.61-1.844
		c0.76-0.465,1.678-0.697,2.752-0.697C323.068,144.256,324.269,144.471,325.669,144.896z"/>
	<path d="M341,144.896v3.137c-1.135-0.502-2.105-0.756-2.916-0.756c-0.604,0-1.104,0.127-1.502,0.379
		c-0.397,0.252-0.646,0.541-0.751,0.869c-0.103,0.33-0.154,1.203-0.154,2.623l-0.002,3.365h5.017v2.771h-5.019l-0.018,22.145h-3.093
		v-22.145h-3.158v-2.771h3.158v-3.893c0-1.787,0.158-3.061,0.476-3.824c0.315-0.762,0.854-1.377,1.612-1.844
		c0.758-0.465,1.675-0.697,2.75-0.697C338.4,144.256,339.602,144.471,341,144.896z"/>
</g>
</svg>
